# xmcd CD database file
#
# Track frame offsets:
#	150
#	17475
#	36750
#	61425
#	72150
#	91800
#	106650
#	123012
#	142323
#	161373
#	176448
#	198423
#
# Disc length: 2919 seconds
#
# Revision: 0
# Processed by: cddbd v1.5.2PL0 Copyright (c) Steve Scherf et al.
# Submitted via: CDex 1.50
#
DISCID=960b650c
DTITLE=Backton, Nico Backton - Down The Line
DYEAR=2014
DGENRE=Blues
TTITLE0=Going to the Country
TTITLE1=Good Morning Little Schoolgirl
TTITLE2=Right Here
TTITLE3=Walking with my Angels
TTITLE4=Down the Line
TTITLE5=Down In Mexico
TTITLE6=Take the Long Way
TTITLE7=Train Train Train
TTITLE8=The Boll Weevil
TTITLE9=In Your Arms
TTITLE10=Hard Times
TTITLE11=After the Rain
EXTD=YEAR: 2014
EXTT0=
EXTT1=
EXTT2=
EXTT3=
EXTT4=
EXTT5=
EXTT6=
EXTT7=
EXTT8=
EXTT9=
EXTT10=
EXTT11=
PLAYORDER=
